<?xml version="1.0" standalone="no"?>
<!DOCTYPE svg PUBLIC "-//W3C//DTD SVG 20010904//EN"
 "http://www.w3.org/TR/2001/REC-SVG-20010904/DTD/svg10.dtd">
<svg version="1.0" xmlns="http://www.w3.org/2000/svg"
 width="80.000000pt" height="80.000000pt" viewBox="0 0 80.000000 80.000000"
 preserveAspectRatio="xMidYMid meet">
<metadata>
Created by potrace 1.11, written by Peter Selinger 2001-2013
</metadata>
<g transform="translate(0.000000,80.000000) scale(0.100000,-0.100000)"
fill="#000000" stroke="none">
<path d="M220 701 l-165 -97 0 -204 0 -204 170 -98 171 -98 172 97 172 98 -3
204 -2 204 -169 99 c-93 54 -172 98 -175 97 -3 -1 -80 -45 -171 -98z m318 -61
l137 -79 0 -160 c0 -88 -3 -162 -5 -164 -10 -8 -269 -157 -274 -157 -8 0 -270
153 -276 161 -9 13 -3 323 6 326 5 2 65 37 134 78 69 41 129 74 133 74 4 1 70
-35 145 -79z"/>
<path d="M258 559 c-6 -4 11 -38 43 -83 l53 -76 -53 -76 c-29 -41 -51 -78 -48
-81 5 -4 174 -7 265 -4 28 1 28 12 -1 43 -21 22 -31 25 -80 23 -32 -1 -57 2
-57 7 0 5 11 24 25 42 31 41 31 51 -1 93 -14 18 -23 37 -20 41 3 5 30 8 61 7
51 -1 58 2 76 26 10 15 19 31 19 36 0 9 -267 11 -282 2z"/>
</g>
</svg>
