<svg xmlns="http://www.w3.org/2000/svg" xmlns:xlink="http://www.w3.org/1999/xlink" viewBox="0 0 260.7 79.98"><defs><style>.cls-1,.cls-3{fill:none;}.cls-2{clip-path:url(#clip-path);}.cls-3{stroke-linecap:round;stroke-linejoin:round;stroke-width:3px;stroke:url(#Безымянный_градиент_10);}</style><clipPath id="clip-path" transform="translate(0 -76.14)"><path class="cls-1" d="M257.93,73.82c.06-18.9-12.4-37.81-37.38-52.23C170.71-7.19,89.91-7.19,40.07,21.58,15.09,36,2.63,54.91,2.69,73.81q0,.13,0,.27t0,.27,0,.27,0,.27,0,.27,0,.27,0,.27,0,.27,0,.27,0,.27,0,.27,0,.27,0,.27,0,.27,0,.27,0,.27,0,.27,0,.27,0,.27,0,.27,0,.27,0,.27,0,.27,0,.27,0,.27,0,.27,0,.27,0,.27,0,.27,0,.27,0,.27,0,.27,0,.27,0,.27,0,.27,0,.27,0,.27,0,.27,0,.27,0,.27,0,.27,0,.27,0,.27,0,.27,0,.27,0,.27,0,.27,0,.27,0,.27,0,.27,0,.27,0,.27,0,.27,0,.27,0,.27,0,.27,0,.27,0,.27,0,.27,0,.27,0,.27,0,.27,0,.27,0,.27,0,.27,0,.27,0,.27,0,.27,0,.27,0,.27,0,.27,0,.27,0,.27,0,.27,0,.27,0,.27,0,.27,0,.27,0,.27,0,.27,0,.27,0,.27,0,.27,0,.27,0,.27,0,.27,0,.27,0,.27,0,.27,0,.27,0,.27,0,.27,0,.27,0,.27,0,.27,0,.27,0,.27,0,.27,0,.27,0,.27c-.06,18.9,12.4,37.81,37.38,52.23,49.84,28.78,130.65,28.78,180.48,0,25-14.42,37.43-33.33,37.38-52.23q0-.13,0-.27t0-.27,0-.27,0-.27,0-.27,0-.27,0-.27,0-.27,0-.27,0-.27,0-.27,0-.27,0-.27,0-.27,0-.27,0-.27,0-.27,0-.27,0-.27,0-.27,0-.27,0-.27,0-.27,0-.27,0-.27,0-.27,0-.27,0-.27,0-.27,0-.27,0-.27,0-.27,0-.27,0-.27,0-.27,0-.27,0-.27,0-.27,0-.27,0-.27,0-.27,0-.27,0-.27,0-.27,0-.27,0-.27,0-.27,0-.27,0-.27,0-.27,0-.27,0-.27,0-.27,0-.27,0-.27,0-.27,0-.27,0-.27,0-.27,0-.27,0-.27,0-.27,0-.27,0-.27,0-.27,0-.27,0-.27,0-.27,0-.27,0-.27,0-.27,0-.27,0-.27,0-.27,0-.27,0-.27,0-.27,0-.27,0-.27,0-.27,0-.27,0-.27,0-.27,0-.27,0-.27,0-.27,0-.27,0-.27,0-.27,0-.27,0-.27,0-.27,0-.27,0-.27,0-.27,0-.27,0-.27,0-.27,0-.27T257.93,73.82Z"/></clipPath><linearGradient id="Безымянный_градиент_10" y1="116.13" x2="260.7" y2="116.13" gradientUnits="userSpaceOnUse"><stop offset="0" stop-color="#596c95"/><stop offset="0.29" stop-color="#465478"/><stop offset="0.79" stop-color="#809ccd"/></linearGradient></defs><title>Asset 13</title><g id="Layer_2" data-name="Layer 2"><g id="Слой_1" data-name="Слой 1"><g class="cls-2"><path class="cls-3" d="M1.58,77.64c-1.19,19.89,11.37,40,37.67,55.19,50.32,29.05,131.91,29.05,182.23,0,24.58-14.19,37.16-32.69,37.72-51.29" transform="translate(0 -76.14)"/></g></g></g></svg>