<svg xmlns="http://www.w3.org/2000/svg" xmlns:xlink="http://www.w3.org/1999/xlink" viewBox="0 0 253.77 97.88"><defs><style>.cls-1{opacity:0.45;}.cls-10,.cls-100,.cls-101,.cls-102,.cls-103,.cls-11,.cls-12,.cls-13,.cls-14,.cls-15,.cls-16,.cls-17,.cls-18,.cls-19,.cls-2,.cls-20,.cls-21,.cls-22,.cls-23,.cls-24,.cls-25,.cls-26,.cls-27,.cls-28,.cls-29,.cls-3,.cls-30,.cls-31,.cls-32,.cls-33,.cls-34,.cls-35,.cls-36,.cls-37,.cls-38,.cls-39,.cls-4,.cls-40,.cls-41,.cls-42,.cls-43,.cls-44,.cls-45,.cls-46,.cls-47,.cls-48,.cls-49,.cls-5,.cls-50,.cls-51,.cls-52,.cls-53,.cls-54,.cls-55,.cls-56,.cls-57,.cls-58,.cls-59,.cls-6,.cls-60,.cls-61,.cls-62,.cls-63,.cls-64,.cls-65,.cls-66,.cls-67,.cls-68,.cls-69,.cls-7,.cls-70,.cls-71,.cls-72,.cls-73,.cls-74,.cls-75,.cls-76,.cls-77,.cls-78,.cls-79,.cls-8,.cls-80,.cls-81,.cls-82,.cls-83,.cls-84,.cls-85,.cls-86,.cls-87,.cls-88,.cls-89,.cls-9,.cls-90,.cls-91,.cls-92,.cls-93,.cls-94,.cls-95,.cls-96,.cls-97,.cls-98,.cls-99{fill:none;stroke-miterlimit:10;stroke-width:1.19px;}.cls-2{opacity:0;stroke:url(#Безымянный_градиент_190);}.cls-3{opacity:0.01;stroke:url(#Безымянный_градиент_190-2);}.cls-4{opacity:0.02;stroke:url(#Безымянный_градиент_190-3);}.cls-5{opacity:0.03;stroke:url(#Безымянный_градиент_190-4);}.cls-6{opacity:0.04;stroke:url(#Безымянный_градиент_190-5);}.cls-7{opacity:0.05;stroke:url(#Безымянный_градиент_190-6);}.cls-8{opacity:0.06;stroke:url(#Безымянный_градиент_190-7);}.cls-9{opacity:0.07;stroke:url(#Безымянный_градиент_190-8);}.cls-10{opacity:0.08;stroke:url(#Безымянный_градиент_190-9);}.cls-11{opacity:0.09;stroke:url(#Безымянный_градиент_190-10);}.cls-12{opacity:0.1;stroke:url(#Безымянный_градиент_190-11);}.cls-13{opacity:0.11;stroke:url(#Безымянный_градиент_190-12);}.cls-14{opacity:0.12;stroke:url(#Безымянный_градиент_190-13);}.cls-15{opacity:0.13;stroke:url(#Безымянный_градиент_190-14);}.cls-16{opacity:0.14;stroke:url(#Безымянный_градиент_190-15);}.cls-17{opacity:0.15;stroke:url(#Безымянный_градиент_190-16);}.cls-18{opacity:0.16;stroke:url(#Безымянный_градиент_190-17);}.cls-19{opacity:0.17;stroke:url(#Безымянный_градиент_190-18);}.cls-20{opacity:0.18;stroke:url(#Безымянный_градиент_190-19);}.cls-21{opacity:0.19;stroke:url(#Безымянный_градиент_190-20);}.cls-22{opacity:0.2;stroke:url(#Безымянный_градиент_190-21);}.cls-23{opacity:0.21;stroke:url(#Безымянный_градиент_190-22);}.cls-24{opacity:0.22;stroke:url(#Безымянный_градиент_190-23);}.cls-25{opacity:0.23;stroke:url(#Безымянный_градиент_190-24);}.cls-26{opacity:0.24;stroke:url(#Безымянный_градиент_190-25);}.cls-27{opacity:0.25;stroke:url(#Безымянный_градиент_190-26);}.cls-28{opacity:0.26;stroke:url(#Безымянный_градиент_190-27);}.cls-29{opacity:0.27;stroke:url(#Безымянный_градиент_190-28);}.cls-30{opacity:0.28;stroke:url(#Безымянный_градиент_190-29);}.cls-31{opacity:0.29;stroke:url(#Безымянный_градиент_190-30);}.cls-32{opacity:0.3;stroke:url(#Безымянный_градиент_190-31);}.cls-33{opacity:0.31;stroke:url(#Безымянный_градиент_190-32);}.cls-34{opacity:0.32;stroke:url(#Безымянный_градиент_190-33);}.cls-35{opacity:0.33;stroke:url(#Безымянный_градиент_190-34);}.cls-36{opacity:0.34;stroke:url(#Безымянный_градиент_190-35);}.cls-37{opacity:0.35;stroke:url(#Безымянный_градиент_190-36);}.cls-38{opacity:0.36;stroke:url(#Безымянный_градиент_190-37);}.cls-39{opacity:0.37;stroke:url(#Безымянный_градиент_190-38);}.cls-40{opacity:0.38;stroke:url(#Безымянный_градиент_190-39);}.cls-41{opacity:0.39;stroke:url(#Безымянный_градиент_190-40);}.cls-42{opacity:0.4;stroke:url(#Безымянный_градиент_190-41);}.cls-43{opacity:0.41;stroke:url(#Безымянный_градиент_190-42);}.cls-44{opacity:0.42;stroke:url(#Безымянный_градиент_190-43);}.cls-45{opacity:0.43;stroke:url(#Безымянный_градиент_190-44);}.cls-46{opacity:0.44;stroke:url(#Безымянный_градиент_190-45);}.cls-47{opacity:0.45;stroke:url(#Безымянный_градиент_190-46);}.cls-48{opacity:0.46;stroke:url(#Безымянный_градиент_190-47);}.cls-49{opacity:0.47;stroke:url(#Безымянный_градиент_190-48);}.cls-50{opacity:0.48;stroke:url(#Безымянный_градиент_190-49);}.cls-51{opacity:0.49;stroke:url(#Безымянный_градиент_190-50);}.cls-52{opacity:0.5;stroke:url(#Безымянный_градиент_190-51);}.cls-53{opacity:0.5;stroke:url(#Безымянный_градиент_190-52);}.cls-54{opacity:0.51;stroke:url(#Безымянный_градиент_190-53);}.cls-55{opacity:0.52;stroke:url(#Безымянный_градиент_190-54);}.cls-56{opacity:0.53;stroke:url(#Безымянный_градиент_190-55);}.cls-57{opacity:0.54;stroke:url(#Безымянный_градиент_190-56);}.cls-58{opacity:0.55;stroke:url(#Безымянный_градиент_190-57);}.cls-59{opacity:0.56;stroke:url(#Безымянный_градиент_190-58);}.cls-60{opacity:0.57;stroke:url(#Безымянный_градиент_190-59);}.cls-61{opacity:0.58;stroke:url(#Безымянный_градиент_190-60);}.cls-62{opacity:0.59;stroke:url(#Безымянный_градиент_190-61);}.cls-63{opacity:0.6;stroke:url(#Безымянный_градиент_190-62);}.cls-64{opacity:0.61;stroke:url(#Безымянный_градиент_190-63);}.cls-65{opacity:0.62;stroke:url(#Безымянный_градиент_190-64);}.cls-66{opacity:0.63;stroke:url(#Безымянный_градиент_190-65);}.cls-67{opacity:0.64;stroke:url(#Безымянный_градиент_190-66);}.cls-68{opacity:0.65;stroke:url(#Безымянный_градиент_190-67);}.cls-69{opacity:0.66;stroke:url(#Безымянный_градиент_190-68);}.cls-70{opacity:0.67;stroke:url(#Безымянный_градиент_190-69);}.cls-71{opacity:0.68;stroke:url(#Безымянный_градиент_190-70);}.cls-72{opacity:0.69;stroke:url(#Безымянный_градиент_190-71);}.cls-73{opacity:0.7;stroke:url(#Безымянный_градиент_190-72);}.cls-74{opacity:0.71;stroke:url(#Безымянный_градиент_190-73);}.cls-75{opacity:0.72;stroke:url(#Безымянный_градиент_190-74);}.cls-76{opacity:0.73;stroke:url(#Безымянный_градиент_190-75);}.cls-77{opacity:0.74;stroke:url(#Безымянный_градиент_190-76);}.cls-78{opacity:0.75;stroke:url(#Безымянный_градиент_190-77);}.cls-79{opacity:0.76;stroke:url(#Безымянный_градиент_190-78);}.cls-80{opacity:0.77;stroke:url(#Безымянный_градиент_190-79);}.cls-81{opacity:0.78;stroke:url(#Безымянный_градиент_190-80);}.cls-82{opacity:0.79;stroke:url(#Безымянный_градиент_190-81);}.cls-83{opacity:0.8;stroke:url(#Безымянный_градиент_190-82);}.cls-84{opacity:0.81;stroke:url(#Безымянный_градиент_190-83);}.cls-85{opacity:0.82;stroke:url(#Безымянный_градиент_190-84);}.cls-86{opacity:0.83;stroke:url(#Безымянный_градиент_190-85);}.cls-87{opacity:0.84;stroke:url(#Безымянный_градиент_190-86);}.cls-88{opacity:0.85;stroke:url(#Безымянный_градиент_190-87);}.cls-89{opacity:0.86;stroke:url(#Безымянный_градиент_190-88);}.cls-90{opacity:0.87;stroke:url(#Безымянный_градиент_190-89);}.cls-91{opacity:0.88;stroke:url(#Безымянный_градиент_190-90);}.cls-92{opacity:0.89;stroke:url(#Безымянный_градиент_190-91);}.cls-93{opacity:0.9;stroke:url(#Безымянный_градиент_190-92);}.cls-94{opacity:0.91;stroke:url(#Безымянный_градиент_190-93);}.cls-95{opacity:0.92;stroke:url(#Безымянный_градиент_190-94);}.cls-96{opacity:0.93;stroke:url(#Безымянный_градиент_190-95);}.cls-97{opacity:0.94;stroke:url(#Безымянный_градиент_190-96);}.cls-98{opacity:0.95;stroke:url(#Безымянный_градиент_190-97);}.cls-99{opacity:0.96;stroke:url(#Безымянный_градиент_190-98);}.cls-100{opacity:0.97;stroke:url(#Безымянный_градиент_190-99);}.cls-101{opacity:0.98;stroke:url(#Безымянный_градиент_190-100);}.cls-102{opacity:0.99;stroke:url(#Безымянный_градиент_190-101);}.cls-103{stroke:url(#Безымянный_градиент_190-102);}</style><linearGradient id="Безымянный_градиент_190" y1="56.08" x2="253.77" y2="56.08" gradientUnits="userSpaceOnUse"><stop offset="0.35" stop-color="#3f446f"/><stop offset="0.45" stop-color="#424a78"/><stop offset="0.61" stop-color="#495c90"/><stop offset="0.63" stop-color="#4a5e93"/></linearGradient><linearGradient id="Безымянный_градиент_190-2" x1="0.01" y1="55.9" x2="253.76" y2="55.9" xlink:href="#Безымянный_градиент_190"/><linearGradient id="Безымянный_градиент_190-3" x1="0.03" y1="55.71" x2="253.76" y2="55.71" xlink:href="#Безымянный_градиент_190"/><linearGradient id="Безымянный_градиент_190-4" x1="0.04" y1="55.53" x2="253.75" y2="55.53" xlink:href="#Безымянный_градиент_190"/><linearGradient id="Безымянный_градиент_190-5" x1="0.05" y1="55.35" x2="253.74" y2="55.35" xlink:href="#Безымянный_градиент_190"/><linearGradient id="Безымянный_градиент_190-6" x1="0.07" y1="55.16" x2="253.73" y2="55.16" xlink:href="#Безымянный_градиент_190"/><linearGradient id="Безымянный_градиент_190-7" x1="0.08" y1="54.98" x2="253.72" y2="54.98" xlink:href="#Безымянный_градиент_190"/><linearGradient id="Безымянный_градиент_190-8" x1="0.09" y1="54.8" x2="253.72" y2="54.8" xlink:href="#Безымянный_градиент_190"/><linearGradient id="Безымянный_градиент_190-9" x1="0.1" y1="54.62" x2="253.71" y2="54.62" xlink:href="#Безымянный_градиент_190"/><linearGradient id="Безымянный_градиент_190-10" x1="0.12" y1="54.43" x2="253.7" y2="54.43" xlink:href="#Безымянный_градиент_190"/><linearGradient id="Безымянный_градиент_190-11" x1="0.13" y1="54.25" x2="253.69" y2="54.25" xlink:href="#Безымянный_градиент_190"/><linearGradient id="Безымянный_градиент_190-12" x1="0.14" y1="54.07" x2="253.69" y2="54.07" xlink:href="#Безымянный_градиент_190"/><linearGradient id="Безымянный_градиент_190-13" x1="0.15" y1="53.88" x2="253.68" y2="53.88" xlink:href="#Безымянный_градиент_190"/><linearGradient id="Безымянный_градиент_190-14" x1="0.16" y1="53.7" x2="253.67" y2="53.7" xlink:href="#Безымянный_градиент_190"/><linearGradient id="Безымянный_градиент_190-15" x1="0.17" y1="53.52" x2="253.67" y2="53.52" xlink:href="#Безымянный_градиент_190"/><linearGradient id="Безымянный_градиент_190-16" x1="0.19" y1="53.34" x2="253.66" y2="53.34" xlink:href="#Безымянный_градиент_190"/><linearGradient id="Безымянный_градиент_190-17" x1="0.2" y1="53.15" x2="253.65" y2="53.15" xlink:href="#Безымянный_градиент_190"/><linearGradient id="Безымянный_градиент_190-18" x1="0.21" y1="52.97" x2="253.65" y2="52.97" xlink:href="#Безымянный_градиент_190"/><linearGradient id="Безымянный_градиент_190-19" x1="0.22" y1="52.79" x2="253.64" y2="52.79" xlink:href="#Безымянный_градиент_190"/><linearGradient id="Безымянный_градиент_190-20" x1="0.23" y1="52.61" x2="253.64" y2="52.61" xlink:href="#Безымянный_градиент_190"/><linearGradient id="Безымянный_градиент_190-21" x1="0.24" y1="52.42" x2="253.63" y2="52.42" xlink:href="#Безымянный_градиент_190"/><linearGradient id="Безымянный_градиент_190-22" x1="0.25" y1="52.24" x2="253.63" y2="52.24" xlink:href="#Безымянный_градиент_190"/><linearGradient id="Безымянный_градиент_190-23" x1="0.26" y1="52.06" x2="253.62" y2="52.06" xlink:href="#Безымянный_градиент_190"/><linearGradient id="Безымянный_градиент_190-24" x1="0.27" y1="51.87" x2="253.61" y2="51.87" xlink:href="#Безымянный_градиент_190"/><linearGradient id="Безымянный_градиент_190-25" x1="0.28" y1="51.69" x2="253.61" y2="51.69" xlink:href="#Безымянный_градиент_190"/><linearGradient id="Безымянный_градиент_190-26" x1="0.28" y1="51.51" x2="253.6" y2="51.51" xlink:href="#Безымянный_градиент_190"/><linearGradient id="Безымянный_градиент_190-27" x1="0.29" y1="51.31" x2="253.6" y2="51.31" xlink:href="#Безымянный_градиент_190"/><linearGradient id="Безымянный_градиент_190-28" x1="0.3" y1="51.11" x2="253.59" y2="51.11" xlink:href="#Безымянный_градиент_190"/><linearGradient id="Безымянный_градиент_190-29" x1="0.31" y1="50.91" x2="253.59" y2="50.91" xlink:href="#Безымянный_градиент_190"/><linearGradient id="Безымянный_градиент_190-30" x1="0.32" y1="50.72" x2="253.59" y2="50.72" xlink:href="#Безымянный_градиент_190"/><linearGradient id="Безымянный_градиент_190-31" x1="0.32" y1="50.52" x2="253.58" y2="50.52" xlink:href="#Безымянный_градиент_190"/><linearGradient id="Безымянный_градиент_190-32" x1="0.33" y1="50.32" x2="253.58" y2="50.32" xlink:href="#Безымянный_градиент_190"/><linearGradient id="Безымянный_градиент_190-33" x1="0.34" y1="50.12" x2="253.57" y2="50.12" xlink:href="#Безымянный_градиент_190"/><linearGradient id="Безымянный_градиент_190-34" x1="0.35" y1="49.93" x2="253.57" y2="49.93" xlink:href="#Безымянный_градиент_190"/><linearGradient id="Безымянный_градиент_190-35" x1="0.35" y1="49.73" x2="253.57" y2="49.73" xlink:href="#Безымянный_градиент_190"/><linearGradient id="Безымянный_градиент_190-36" x1="0.36" y1="49.53" x2="253.56" y2="49.53" xlink:href="#Безымянный_градиент_190"/><linearGradient id="Безымянный_градиент_190-37" x1="0.37" y1="49.33" x2="253.56" y2="49.33" xlink:href="#Безымянный_градиент_190"/><linearGradient id="Безымянный_градиент_190-38" x1="0.37" y1="49.13" x2="253.56" y2="49.13" xlink:href="#Безымянный_градиент_190"/><linearGradient id="Безымянный_градиент_190-39" x1="0.38" y1="48.94" x2="253.55" y2="48.94" xlink:href="#Безымянный_градиент_190"/><linearGradient id="Безымянный_градиент_190-40" x1="0.38" y1="48.74" x2="253.55" y2="48.74" xlink:href="#Безымянный_градиент_190"/><linearGradient id="Безымянный_градиент_190-41" x1="0.39" y1="48.54" x2="253.55" y2="48.54" xlink:href="#Безымянный_градиент_190"/><linearGradient id="Безымянный_градиент_190-42" x1="0.39" y1="48.34" x2="253.54" y2="48.34" xlink:href="#Безымянный_градиент_190"/><linearGradient id="Безымянный_градиент_190-43" x1="0.4" y1="48.15" x2="253.54" y2="48.15" xlink:href="#Безымянный_градиент_190"/><linearGradient id="Безымянный_градиент_190-44" x1="0.4" y1="47.95" x2="253.54" y2="47.95" xlink:href="#Безымянный_градиент_190"/><linearGradient id="Безымянный_градиент_190-45" x1="0.4" y1="47.75" x2="253.54" y2="47.75" xlink:href="#Безымянный_градиент_190"/><linearGradient id="Безымянный_градиент_190-46" x1="0.41" y1="47.55" x2="253.54" y2="47.55" xlink:href="#Безымянный_градиент_190"/><linearGradient id="Безымянный_градиент_190-47" x1="0.41" y1="47.35" x2="253.53" y2="47.35" xlink:href="#Безымянный_градиент_190"/><linearGradient id="Безымянный_градиент_190-48" x1="0.41" y1="47.16" x2="253.53" y2="47.16" xlink:href="#Безымянный_градиент_190"/><linearGradient id="Безымянный_градиент_190-49" x1="0.42" y1="46.96" x2="253.53" y2="46.96" xlink:href="#Безымянный_градиент_190"/><linearGradient id="Безымянный_градиент_190-50" x1="0.42" y1="46.76" x2="253.53" y2="46.76" xlink:href="#Безымянный_градиент_190"/><linearGradient id="Безымянный_градиент_190-51" x1="0.42" y1="46.56" x2="253.53" y2="46.56" xlink:href="#Безымянный_градиент_190"/><linearGradient id="Безымянный_градиент_190-52" x1="0.42" y1="46.37" x2="253.53" y2="46.37" xlink:href="#Безымянный_градиент_190"/><linearGradient id="Безымянный_градиент_190-53" x1="0.42" y1="46.17" x2="253.53" y2="46.17" xlink:href="#Безымянный_градиент_190"/><linearGradient id="Безымянный_градиент_190-54" x1="0.43" y1="45.97" x2="253.53" y2="45.97" xlink:href="#Безымянный_градиент_190"/><linearGradient id="Безымянный_градиент_190-55" x1="0.43" y1="45.77" x2="253.53" y2="45.77" xlink:href="#Безымянный_градиент_190"/><linearGradient id="Безымянный_градиент_190-56" x1="0.43" y1="45.58" x2="253.53" y2="45.58" xlink:href="#Безымянный_градиент_190"/><linearGradient id="Безымянный_градиент_190-57" x1="0.43" y1="45.38" x2="253.53" y2="45.38" xlink:href="#Безымянный_градиент_190"/><linearGradient id="Безымянный_градиент_190-58" x1="0.43" y1="45.18" x2="253.53" y2="45.18" xlink:href="#Безымянный_градиент_190"/><linearGradient id="Безымянный_градиент_190-59" x1="0.43" y1="44.98" x2="253.53" y2="44.98" xlink:href="#Безымянный_градиент_190"/><linearGradient id="Безымянный_градиент_190-60" x1="0.43" y1="44.79" x2="253.53" y2="44.79" xlink:href="#Безымянный_градиент_190"/><linearGradient id="Безымянный_градиент_190-61" x1="0.42" y1="44.59" x2="253.53" y2="44.59" xlink:href="#Безымянный_градиент_190"/><linearGradient id="Безымянный_градиент_190-62" x1="0.42" y1="44.39" x2="253.53" y2="44.39" xlink:href="#Безымянный_градиент_190"/><linearGradient id="Безымянный_градиент_190-63" x1="0.42" y1="44.19" x2="253.53" y2="44.19" xlink:href="#Безымянный_градиент_190"/><linearGradient id="Безымянный_градиент_190-64" x1="0.42" y1="43.99" x2="253.53" y2="43.99" xlink:href="#Безымянный_градиент_190"/><linearGradient id="Безымянный_градиент_190-65" x1="0.42" y1="43.8" x2="253.54" y2="43.8" xlink:href="#Безымянный_градиент_190"/><linearGradient id="Безымянный_градиент_190-66" x1="0.41" y1="43.6" x2="253.54" y2="43.6" xlink:href="#Безымянный_градиент_190"/><linearGradient id="Безымянный_градиент_190-67" x1="0.41" y1="43.4" x2="253.54" y2="43.4" xlink:href="#Безымянный_градиент_190"/><linearGradient id="Безымянный_градиент_190-68" x1="0.41" y1="43.2" x2="253.54" y2="43.2" xlink:href="#Безымянный_градиент_190"/><linearGradient id="Безымянный_градиент_190-69" x1="0.4" y1="43.01" x2="253.55" y2="43.01" xlink:href="#Безымянный_градиент_190"/><linearGradient id="Безымянный_градиент_190-70" x1="0.4" y1="42.81" x2="253.55" y2="42.81" xlink:href="#Безымянный_градиент_190"/><linearGradient id="Безымянный_градиент_190-71" x1="0.39" y1="42.61" x2="253.55" y2="42.61" xlink:href="#Безымянный_градиент_190"/><linearGradient id="Безымянный_градиент_190-72" x1="0.39" y1="42.41" x2="253.55" y2="42.41" xlink:href="#Безымянный_градиент_190"/><linearGradient id="Безымянный_градиент_190-73" x1="0.38" y1="42.22" x2="253.56" y2="42.22" xlink:href="#Безымянный_градиент_190"/><linearGradient id="Безымянный_градиент_190-74" x1="0.37" y1="42.02" x2="253.56" y2="42.02" xlink:href="#Безымянный_градиент_190"/><linearGradient id="Безымянный_градиент_190-75" x1="0.37" y1="41.82" x2="253.57" y2="41.82" xlink:href="#Безымянный_градиент_190"/><linearGradient id="Безымянный_градиент_190-76" x1="0.36" y1="41.62" x2="253.57" y2="41.62" xlink:href="#Безымянный_градиент_190"/><linearGradient id="Безымянный_градиент_190-77" x1="0.35" y1="41.42" x2="253.57" y2="41.42" xlink:href="#Безымянный_градиент_190"/><linearGradient id="Безымянный_градиент_190-78" x1="0.34" y1="41.23" x2="253.58" y2="41.23" xlink:href="#Безымянный_градиент_190"/><linearGradient id="Безымянный_градиент_190-79" x1="0.34" y1="41.03" x2="253.58" y2="41.03" xlink:href="#Безымянный_градиент_190"/><linearGradient id="Безымянный_градиент_190-80" x1="0.33" y1="40.83" x2="253.59" y2="40.83" xlink:href="#Безымянный_градиент_190"/><linearGradient id="Безымянный_градиент_190-81" x1="0.32" y1="40.63" x2="253.6" y2="40.63" xlink:href="#Безымянный_градиент_190"/><linearGradient id="Безымянный_градиент_190-82" x1="0.31" y1="40.44" x2="253.6" y2="40.44" xlink:href="#Безымянный_градиент_190"/><linearGradient id="Безымянный_градиент_190-83" x1="0.3" y1="40.24" x2="253.61" y2="40.24" xlink:href="#Безымянный_градиент_190"/><linearGradient id="Безымянный_градиент_190-84" x1="0.29" y1="40.04" x2="253.61" y2="40.04" xlink:href="#Безымянный_градиент_190"/><linearGradient id="Безымянный_градиент_190-85" x1="0.28" y1="39.84" x2="253.62" y2="39.84" xlink:href="#Безымянный_градиент_190"/><linearGradient id="Безымянный_градиент_190-86" x1="0.27" y1="39.65" x2="253.63" y2="39.65" xlink:href="#Безымянный_градиент_190"/><linearGradient id="Безымянный_градиент_190-87" x1="0.25" y1="39.45" x2="253.63" y2="39.45" xlink:href="#Безымянный_градиент_190"/><linearGradient id="Безымянный_градиент_190-88" x1="0.24" y1="39.25" x2="253.64" y2="39.25" xlink:href="#Безымянный_градиент_190"/><linearGradient id="Безымянный_градиент_190-89" x1="0.23" y1="39.05" x2="253.65" y2="39.05" xlink:href="#Безымянный_градиент_190"/><linearGradient id="Безымянный_градиент_190-90" x1="0.22" y1="38.86" x2="253.66" y2="38.86" xlink:href="#Безымянный_градиент_190"/><linearGradient id="Безымянный_градиент_190-91" x1="0.21" y1="38.66" x2="253.66" y2="38.66" xlink:href="#Безымянный_градиент_190"/><linearGradient id="Безымянный_градиент_190-92" x1="0.2" y1="38.46" x2="253.67" y2="38.46" xlink:href="#Безымянный_градиент_190"/><linearGradient id="Безымянный_градиент_190-93" x1="0.19" y1="38.26" x2="253.68" y2="38.26" xlink:href="#Безымянный_градиент_190"/><linearGradient id="Безымянный_градиент_190-94" x1="0.18" y1="38.07" x2="253.69" y2="38.07" xlink:href="#Безымянный_градиент_190"/><linearGradient id="Безымянный_градиент_190-95" x1="0.17" y1="37.87" x2="253.7" y2="37.87" xlink:href="#Безымянный_градиент_190"/><linearGradient id="Безымянный_градиент_190-96" x1="0.16" y1="37.67" x2="253.71" y2="37.67" xlink:href="#Безымянный_градиент_190"/><linearGradient id="Безымянный_градиент_190-97" x1="0.15" y1="37.47" x2="253.72" y2="37.47" xlink:href="#Безымянный_градиент_190"/><linearGradient id="Безымянный_градиент_190-98" x1="0.14" y1="37.27" x2="253.73" y2="37.27" xlink:href="#Безымянный_градиент_190"/><linearGradient id="Безымянный_градиент_190-99" x1="0.13" y1="37.07" x2="253.74" y2="37.07" xlink:href="#Безымянный_градиент_190"/><linearGradient id="Безымянный_градиент_190-100" x1="0.12" y1="36.88" x2="253.75" y2="36.88" xlink:href="#Безымянный_градиент_190"/><linearGradient id="Безымянный_градиент_190-101" x1="0.11" y1="36.68" x2="253.76" y2="36.68" xlink:href="#Безымянный_градиент_190"/><linearGradient id="Безымянный_градиент_190-102" x1="0.1" y1="36.48" x2="253.77" y2="36.48" xlink:href="#Безымянный_градиент_190"/></defs><title>Asset 10</title><g id="Layer_2" data-name="Layer 2"><g id="Слой_1" data-name="Слой 1"><g class="cls-1"><path class="cls-2" d="M1.77,14.42C-3.41,36.24,8.53,59.15,37.58,75.93c49.32,28.48,129.29,28.48,178.61,0,28.73-16.59,40.72-39.18,36-60.78"/><path class="cls-3" d="M1.76,14.3C-3.36,36.08,8.58,58.94,37.58,75.68c49.32,28.48,129.29,28.48,178.61,0,28.69-16.56,40.68-39.11,36-60.68"/><path class="cls-4" d="M1.75,14.18C-3.31,35.92,8.64,58.72,37.58,75.44c49.32,28.48,129.29,28.48,178.61,0,28.64-16.54,40.64-39,36-60.58"/><path class="cls-5" d="M1.74,14.05c-5,21.7,7,44.45,35.85,61.13,49.32,28.48,129.29,28.48,178.61,0,28.6-16.51,40.61-39,36-60.49"/><path class="cls-6" d="M1.73,13.93c-4.93,21.66,7,44.36,35.86,61,49.32,28.48,129.29,28.48,178.61,0,28.56-16.49,40.57-38.91,36-60.39"/><path class="cls-7" d="M1.71,13.81C-3.15,35.43,8.81,58.08,37.58,74.69c49.32,28.48,129.29,28.48,178.61,0,28.52-16.46,40.53-38.85,36-60.29"/><path class="cls-8" d="M1.7,13.69C-3.1,35.27,8.86,57.87,37.58,74.45c49.32,28.48,129.29,28.48,178.61,0,28.47-16.44,40.49-38.78,36-60.2"/><path class="cls-9" d="M1.69,13.57C-3,35.11,8.92,57.65,37.58,74.2c49.32,28.48,129.29,28.48,178.61,0,28.43-16.41,40.45-38.72,36.05-60.1"/><path class="cls-10" d="M1.68,13.45C-3,34.95,9,57.44,37.58,74c49.32,28.48,129.29,28.48,178.61,0,28.39-16.39,40.41-38.65,36.06-60"/><path class="cls-11" d="M1.67,13.33C-2.94,34.79,9,57.22,37.58,73.71c49.32,28.48,129.29,28.48,178.61,0,28.35-16.37,40.37-38.59,36.07-59.91"/><path class="cls-12" d="M1.66,13.21C-2.89,34.63,9.09,57,37.58,73.46c49.32,28.48,129.29,28.48,178.61,0,28.3-16.34,40.33-38.52,36.08-59.81"/><path class="cls-13" d="M1.65,13.09c-4.49,21.37,7.49,43.7,35.93,60.12,49.32,28.48,129.29,28.48,178.61,0,28.26-16.32,40.29-38.45,36.09-59.71"/><path class="cls-14" d="M1.64,13C-2.78,34.31,9.2,56.58,37.58,73c49.32,28.48,129.29,28.48,178.61,0,28.22-16.29,40.25-38.39,36.1-59.62"/><path class="cls-15" d="M1.63,12.85c-4.36,21.29,7.63,43.51,36,59.87,49.32,28.48,129.29,28.48,178.61,0C244.36,56.46,256.4,34.4,252.3,13.2"/><path class="cls-16" d="M1.62,12.73c-4.3,21.25,7.69,43.42,36,59.74,49.32,28.48,129.29,28.48,178.61,0,28.13-16.24,40.17-38.26,36.12-59.42"/><path class="cls-17" d="M1.61,12.61c-4.23,21.21,7.76,43.32,36,59.62,49.32,28.48,129.29,28.48,178.61,0C244.28,56,256.32,34,252.32,12.9"/><path class="cls-18" d="M1.6,12.49C-2.57,33.66,9.42,55.72,37.58,72c49.32,28.48,129.29,28.48,178.61,0,28-16.19,40.09-38.12,36.14-59.23"/><path class="cls-19" d="M1.59,12.37c-4.11,21.13,7.89,43.13,36,59.36,49.32,28.48,129.29,28.48,178.61,0,28-16.17,40.05-38.06,36.15-59.13"/><path class="cls-20" d="M1.58,12.25c-4,21.09,8,43,36,59.24C86.91,100,166.87,100,216.19,71.49c28-16.14,40-38,36.16-59"/><path class="cls-21" d="M1.56,12.13c-4,21,8,42.95,36,59.11,49.32,28.48,129.29,28.48,178.61,0,27.92-16.12,40-37.93,36.17-58.94"/><path class="cls-22" d="M1.55,12c-3.92,21,8.09,42.85,36,59,49.32,28.48,129.29,28.48,178.61,0,27.87-16.09,39.93-37.86,36.18-58.84"/><path class="cls-23" d="M1.54,11.89c-3.86,21,8.16,42.76,36,58.86,49.32,28.48,129.29,28.48,178.61,0C244,54.68,256.09,33,252.38,12"/><path class="cls-24" d="M1.53,11.77C-2.26,32.7,9.76,54.43,37.58,70.5,86.91,99,166.87,99,216.19,70.5c27.79-16,39.86-37.73,36.2-58.65"/><path class="cls-25" d="M1.52,11.65c-3.73,20.88,8.29,42.57,36.06,58.6,49.32,28.48,129.29,28.48,178.61,0,27.75-16,39.82-37.66,36.21-58.55"/><path class="cls-26" d="M1.51,11.53C-2.16,32.37,9.87,54,37.58,70c49.32,28.48,129.29,28.48,178.61,0,27.7-16,39.78-37.6,36.22-58.45"/><path class="cls-27" d="M1.5,11.41c-3.6,20.8,8.42,42.38,36.08,58.35,49.32,28.48,129.29,28.48,178.61,0,27.66-16,39.74-37.53,36.23-58.36"/><path class="cls-28" d="M1.49,11.29C-2.05,32.05,10,53.58,37.58,69.51,86.91,98,166.87,98,216.19,69.51c27.62-15.95,39.7-37.47,36.24-58.26"/><path class="cls-29" d="M1.48,11.17C-2,31.89,10,53.36,37.58,69.27c49.32,28.48,129.29,28.48,178.61,0,27.58-15.92,39.66-37.4,36.25-58.16"/><path class="cls-30" d="M1.47,11c-3.42,20.68,8.62,42.1,36.12,58C86.91,97.49,166.87,97.5,216.19,69c27.53-15.9,39.62-37.33,36.26-58.07"/><path class="cls-31" d="M1.46,10.93c-3.35,20.64,8.69,42,36.13,57.84,49.32,28.48,129.29,28.48,178.61,0,27.49-15.87,39.58-37.27,36.27-58"/><path class="cls-32" d="M1.45,10.81c-3.29,20.6,8.76,41.91,36.14,57.72C86.91,97,166.87,97,216.19,68.53c27.45-15.85,39.54-37.2,36.28-57.87"/><path class="cls-33" d="M1.44,10.69C-1.79,31.25,10.26,52.5,37.58,68.28c49.32,28.48,129.29,28.48,178.61,0,27.4-15.82,39.5-37.14,36.29-57.78"/><path class="cls-34" d="M1.43,10.57C-1.74,31.09,10.31,52.29,37.58,68c49.32,28.48,129.29,28.48,178.61,0,27.36-15.8,39.46-37.07,36.3-57.68"/><path class="cls-35" d="M1.41,10.45c-3.1,20.48,9,41.63,36.17,57.34,49.32,28.48,129.29,28.48,178.61,0,27.32-15.77,39.42-37,36.31-57.58"/><path class="cls-36" d="M1.4,10.33c-3,20.44,9,41.53,36.18,57.21C86.91,96,166.87,96,216.19,67.54c27.28-15.75,39.38-36.94,36.32-57.49"/><path class="cls-37" d="M1.39,10.21c-3,20.4,9.09,41.44,36.19,57.09,49.32,28.48,129.29,28.48,178.61,0,27.23-15.72,39.34-36.87,36.33-57.39"/><path class="cls-38" d="M1.38,10.09c-2.91,20.36,9.16,41.34,36.2,57,49.32,28.48,129.29,28.48,178.61,0,27.19-15.7,39.3-36.81,36.34-57.29"/><path class="cls-39" d="M1.37,10C-1.48,30.28,10.59,51.22,37.58,66.8c49.32,28.48,129.29,28.48,178.61,0,27.15-15.67,39.26-36.74,36.35-57.2"/><path class="cls-40" d="M1.36,9.85C-1.42,30.12,10.65,51,37.58,66.55,86.91,95,166.87,95,216.19,66.55c27.11-15.65,39.23-36.67,36.36-57.1"/><path class="cls-41" d="M1.35,9.72C-1.37,30,10.71,50.79,37.58,66.3c49.32,28.48,129.29,28.48,178.61,0,27.06-15.62,39.19-36.61,36.37-57"/><path class="cls-42" d="M1.34,9.6c-2.66,20.19,9.42,41,36.24,56.45,49.32,28.48,129.29,28.48,178.61,0,27-15.6,39.15-36.54,36.38-56.9"/><path class="cls-43" d="M1.33,9.48c-2.6,20.15,9.49,40.87,36.26,56.33,49.32,28.48,129.29,28.48,178.61,0,27-15.58,39.11-36.48,36.39-56.81"/><path class="cls-44" d="M1.32,9.36c-2.53,20.11,9.55,40.78,36.27,56.2C86.91,94,166.87,94,216.19,65.57,243.12,50,255.26,29.15,252.59,8.85"/><path class="cls-45" d="M1.31,9.24c-2.47,20.07,9.62,40.68,36.28,56.07,49.32,28.48,129.29,28.48,178.61,0C243.08,49.79,255.22,29,252.6,8.7"/><path class="cls-46" d="M1.3,9.12c-2.41,20,9.69,40.59,36.29,55.95,49.32,28.48,129.29,28.48,178.61,0,26.85-15.5,39-36.28,36.42-56.52"/><path class="cls-47" d="M1.29,9C-1.06,29,11,49.5,37.58,64.82c49.32,28.48,129.29,28.48,178.61,0C243,49.35,255.14,28.61,252.62,8.4"/><path class="cls-48" d="M1.28,8.88C-1,28.83,11.1,49.28,37.58,64.58c49.32,28.48,129.29,28.48,178.61,0C243,49.13,255.1,28.43,252.63,8.25"/><path class="cls-49" d="M1.26,8.76C-1,28.67,11.15,49.07,37.58,64.33c49.32,28.48,129.29,28.48,178.61,0C242.91,48.9,255.06,28.25,252.64,8.1"/><path class="cls-50" d="M1.25,8.64c-2.16,19.87,10,40.21,36.33,55.44,49.32,28.48,129.29,28.48,178.61,0C242.87,48.68,255,28.07,252.65,8"/><path class="cls-51" d="M1.24,8.52c-2.09,19.83,10,40.12,36.34,55.32,49.32,28.48,129.29,28.48,178.61,0,26.64-15.38,38.79-36,36.47-56"/><path class="cls-52" d="M1.23,8.4c-2,19.79,10.09,40,36.35,55.19,49.32,28.48,129.29,28.48,178.61,0,26.59-15.35,38.75-35.88,36.48-55.94"/><path class="cls-53" d="M1.22,8.28C-.75,28,11.38,48.21,37.58,63.34c49.32,28.48,129.29,28.48,178.61,0C242.74,48,254.9,27.53,252.68,7.51"/><path class="cls-54" d="M1.21,8.16C-.69,27.87,11.43,48,37.58,63.1c49.32,28.48,129.29,28.48,178.61,0,26.51-15.3,38.67-35.75,36.5-55.74"/><path class="cls-55" d="M1.2,8C-.64,27.7,11.49,47.78,37.58,62.85c49.32,28.48,129.29,28.48,178.61,0,26.46-15.28,38.63-35.69,36.51-55.65"/><path class="cls-56" d="M1.19,7.92C-.59,27.54,11.54,47.57,37.58,62.6c49.32,28.48,129.29,28.48,178.61,0C242.61,47.35,254.78,27,252.71,7.06"/><path class="cls-57" d="M1.18,7.8C-.54,27.38,11.6,47.35,37.58,62.36c49.32,28.48,129.29,28.48,178.61,0,26.38-15.23,38.56-35.55,36.53-55.45"/><path class="cls-58" d="M1.17,7.68C-.48,27.22,11.65,47.14,37.58,62.11c49.32,28.48,129.29,28.48,178.61,0,26.34-15.21,38.52-35.49,36.54-55.36"/><path class="cls-59" d="M1.16,7.56c-1.59,19.5,10.55,39.36,36.43,54.3,49.32,28.48,129.29,28.48,178.61,0,26.29-15.18,38.48-35.42,36.55-55.26"/><path class="cls-60" d="M1.15,7.44C-.38,26.9,11.77,46.71,37.58,61.62c49.32,28.48,129.29,28.48,178.61,0,26.25-15.16,38.44-35.36,36.56-55.16"/><path class="cls-61" d="M1.14,7.32C-.33,26.74,11.82,46.5,37.58,61.37c49.32,28.48,129.29,28.48,178.61,0,26.21-15.13,38.4-35.29,36.57-55.07"/><path class="cls-62" d="M1.13,7.2C-.28,26.58,11.88,46.28,37.58,61.12c49.32,28.48,129.29,28.48,178.61,0,26.17-15.11,38.36-35.23,36.58-55"/><path class="cls-63" d="M1.11,7.08c-1.34,19.34,10.82,39,36.47,53.8,49.32,28.48,129.29,28.48,178.61,0C242.31,45.8,254.51,25.72,252.78,6"/><path class="cls-64" d="M1.1,7C-.17,26.26,12,45.85,37.58,60.63c49.32,28.48,129.29,28.48,178.61,0,26.08-15.06,38.28-35.09,36.6-54.77"/><path class="cls-65" d="M1.09,6.84C-.12,26.09,12,45.64,37.58,60.38c49.32,28.48,129.29,28.48,178.61,0,26-15,38.24-35,36.61-54.68"/><path class="cls-66" d="M1.08,6.72c-1.15,19.22,11,38.7,36.5,53.42,49.32,28.48,129.29,28.48,178.61,0,26-15,38.2-35,36.62-54.58"/><path class="cls-67" d="M1.07,6.6C0,25.77,12.16,45.21,37.58,59.89c49.32,28.48,129.29,28.48,178.61,0,26-15,38.16-34.9,36.63-54.48"/><path class="cls-68" d="M1.06,6.48C0,25.61,12.21,45,37.58,59.64c49.32,28.48,129.29,28.48,178.61,0,25.91-15,38.12-34.83,36.64-54.39"/><path class="cls-69" d="M1.05,6.36c-1,19.09,11.22,38.42,36.53,53,49.32,28.48,129.29,28.48,178.61,0,25.87-14.93,38.08-34.76,36.65-54.29"/><path class="cls-70" d="M1,6.24C.14,25.29,12.32,44.56,37.58,59.15c49.32,28.48,129.29,28.48,178.61,0C242,44.24,254.23,24.45,252.85,5"/><path class="cls-71" d="M1,6.12C.2,25.13,12.38,44.35,37.58,58.9c49.32,28.48,129.29,28.48,178.61,0C242,44,254.19,24.27,252.86,4.81"/><path class="cls-72" d="M1,6C.25,25,12.44,44.14,37.58,58.65c49.32,28.48,129.29,28.48,178.61,0,25.74-14.86,38-34.57,36.68-54"/><path class="cls-73" d="M1,5.88c-.71,18.93,11.48,38,36.58,52.53,49.32,28.48,129.29,28.48,178.61,0,25.7-14.84,37.92-34.5,36.69-53.9"/><path class="cls-74" d="M1,5.76c-.65,18.89,11.55,38,36.59,52.41,49.32,28.48,129.29,28.48,178.61,0,25.65-14.81,37.88-34.44,36.7-53.81"/><path class="cls-75" d="M1,5.64C.4,24.48,12.6,43.49,37.58,57.91c49.32,28.48,129.29,28.48,178.61,0C241.8,43.13,254,23.55,252.9,4.21"/><path class="cls-76" d="M1,5.51C.46,24.32,12.66,43.28,37.58,57.67c49.32,28.48,129.29,28.48,178.61,0C241.76,42.91,254,23.37,252.91,4.06"/><path class="cls-77" d="M1,5.39c-.46,18.77,11.75,37.67,36.62,52,49.32,28.48,129.29,28.48,178.61,0C241.71,42.69,254,23.18,252.92,3.91"/><path class="cls-78" d="M1,5.27C.56,24,12.77,42.85,37.58,57.17c49.32,28.48,129.29,28.48,178.61,0C241.67,42.46,253.92,23,252.93,3.76"/><path class="cls-79" d="M.94,5.15C.61,23.84,12.83,42.63,37.58,56.93c49.32,28.48,129.29,28.48,178.61,0,25.44-14.69,37.69-34.11,36.75-53.32"/><path class="cls-80" d="M.93,5C.67,23.68,12.88,42.42,37.58,56.68c49.32,28.48,129.29,28.48,178.61,0,25.4-14.66,37.65-34,36.76-53.23"/><path class="cls-81" d="M.92,4.91c-.2,18.6,12,37.29,36.66,51.52,49.32,28.48,129.29,28.48,178.61,0C241.54,41.8,253.8,22.46,253,3.31"/><path class="cls-82" d="M.91,4.79C.77,23.36,13,42,37.58,56.19c49.32,28.48,129.29,28.48,178.61,0,25.31-14.61,37.57-33.91,36.78-53"/><path class="cls-83" d="M.9,4.67C.82,23.2,13.05,41.78,37.58,55.94c49.32,28.48,129.29,28.48,178.61,0C241.46,41.35,253.72,22.1,253,3"/><path class="cls-84" d="M.89,4.55c0,18.48,12.22,37,36.69,51.14,49.32,28.48,129.29,28.48,178.61,0C241.41,41.13,253.68,21.92,253,2.86"/><path class="cls-85" d="M.88,4.43c0,18.44,12.28,36.91,36.7,51,49.32,28.48,129.29,28.48,178.61,0C241.37,40.91,253.64,21.74,253,2.71"/><path class="cls-86" d="M.87,4.31C1,22.71,13.22,41.13,37.58,55.2c49.32,28.48,129.29,28.48,178.61,0C241.33,40.69,253.6,21.56,253,2.56"/><path class="cls-87" d="M.86,4.19C1,22.55,13.27,40.92,37.58,55c49.32,28.48,129.29,28.48,178.61,0C241.29,40.46,253.56,21.38,253,2.41"/><path class="cls-88" d="M.85,4.07C1.08,22.39,13.33,40.7,37.58,54.71c49.32,28.48,129.29,28.48,178.61,0C241.24,40.24,253.52,21.19,253,2.26"/><path class="cls-89" d="M.84,4c.3,18.28,12.55,36.54,36.75,50.51,49.32,28.48,129.29,28.48,178.61,0C241.2,40,253.48,21,253,2.11"/><path class="cls-90" d="M.83,3.83c.36,18.24,12.62,36.44,36.76,50.38,49.32,28.48,129.29,28.48,178.61,0C241.16,39.8,253.44,20.83,253,2"/><path class="cls-91" d="M.82,3.71C1.24,21.91,13.5,40.06,37.58,54c49.32,28.48,129.29,28.48,178.61,0,24.93-14.39,37.21-33.32,36.87-52.16"/><path class="cls-92" d="M.8,3.59c.49,18.16,12.75,36.25,36.78,50.13,49.32,28.48,129.29,28.48,178.61,0,24.88-14.37,37.18-33.25,36.88-52.06"/><path class="cls-93" d="M.79,3.47c.55,18.12,12.81,36.16,36.79,50,49.32,28.48,129.29,28.48,178.61,0,24.84-14.34,37.14-33.18,36.89-52"/><path class="cls-94" d="M.78,3.35c.61,18.08,12.88,36.07,36.8,49.88,49.32,28.48,129.29,28.48,178.61,0,24.8-14.32,37.1-33.12,36.9-51.87"/><path class="cls-95" d="M.77,3.23c.68,18,12.95,36,36.81,49.75,49.32,28.48,129.29,28.48,178.61,0,24.76-14.29,37.06-33.05,36.91-51.77"/><path class="cls-96" d="M.76,3.11c.74,18,13,35.88,36.82,49.62,49.32,28.48,129.29,28.48,178.61,0,24.71-14.27,37-33,36.92-51.68"/><path class="cls-97" d="M.75,3c.8,18,13.08,35.78,36.83,49.5C86.91,81,166.87,81,216.19,52.49c24.67-14.24,37-32.92,36.93-51.58"/><path class="cls-98" d="M.74,2.87c.87,17.91,13.15,35.69,36.84,49.37,49.32,28.48,129.29,28.48,178.61,0C240.82,38,253.13,19.39,253.13.76"/><path class="cls-99" d="M.73,2.75C1.66,20.62,13.94,38.34,37.58,52c49.32,28.48,129.29,28.48,178.61,0C240.77,37.8,253.09,19.2,253.14.61"/><path class="cls-100" d="M.72,2.63c1,17.83,13.28,35.5,36.87,49.12,49.32,28.48,129.29,28.48,178.61,0C240.73,37.58,253,19,253.15.46"/><path class="cls-101" d="M.71,2.51c1.06,17.79,13.35,35.41,36.88,49C86.91,80,166.87,80,216.19,51.5c24.5-14.14,36.82-32.66,37-51.19"/><path class="cls-102" d="M.7,2.39C1.82,20.14,14.11,37.7,37.58,51.25c49.32,28.48,129.29,28.48,178.61,0,24.46-14.12,36.78-32.59,37-51.1"/><path class="cls-103" d="M.69,2.27C1.87,20,14.17,37.48,37.58,51c49.32,28.48,129.29,28.48,178.61,0,24.41-14.09,36.74-32.52,37-51"/></g></g></g></svg>