<svg xmlns="http://www.w3.org/2000/svg" xmlns:xlink="http://www.w3.org/1999/xlink" viewBox="0 0 255.24 191.17"><defs><style>.cls-1{fill:url(#Безымянный_градиент_3);}</style><linearGradient id="Безымянный_градиент_3" y1="95.58" x2="255.24" y2="95.58" gradientUnits="userSpaceOnUse"><stop offset="0.35" stop-color="#1e2444"/><stop offset="0.43" stop-color="#252c4d"/><stop offset="0.56" stop-color="#374265"/><stop offset="0.63" stop-color="#414f73"/></linearGradient></defs><title>Asset 11</title><g id="Layer_2" data-name="Layer 2"><g id="Слой_1" data-name="Слой 1"><path class="cls-1" d="M217.86,21.58C168-7.19,87.21-7.19,37.37,21.58,12.36,36-.1,55,0,73.9q0,.22,0,.43t0,.43Q0,75,0,75.2t0,.43q0,.22,0,.43t0,.43q0,.22,0,.43t0,.43q0,.22,0,.43t0,.43q0,.22,0,.43t0,.43q0,.22,0,.43T0,80q0,.22,0,.43t0,.43q0,.22,0,.43t0,.43q0,.22,0,.43t0,.43q0,.22,0,.43t0,.43q0,.22,0,.43t0,.43q0,.22,0,.43t0,.43q0,.22,0,.43T0,86q0,.22,0,.43t0,.43q0,.22,0,.43t0,.43q0,.22,0,.43t0,.43q0,.22,0,.43t0,.43q0,.22,0,.43t0,.43q0,.22,0,.43t0,.43q0,.22,0,.43t0,.43q0,.22,0,.43T0,93q0,.22,0,.43t0,.43q0,.22,0,.43t0,.43q0,.22,0,.43t0,.43Q0,95.8,0,96t0,.43q0,.22,0,.43t0,.43q0,.22,0,.43t0,.43q0,.22,0,.43t0,.43q0,.22,0,.43t0,.43q0,.22,0,.43t0,.43q0,.22,0,.43t0,.43q0,.22,0,.43t0,.43q0,.22,0,.43t0,.43q0,.22,0,.43t0,.43q0,.22,0,.43t0,.43q0,.22,0,.43T0,106q0,.22,0,.43t0,.43q0,.22,0,.43t0,.43q0,.22,0,.43t0,.43q0,.22,0,.43t0,.43q0,.22,0,.43t0,.43q0,.22,0,.43t0,.43q0,.22,0,.43t0,.43q0,.22,0,.43t0,.43q0,.22,0,.43t0,.43q0,.22,0,.43t0,.43q0,.22,0,.43t0,.43q0,.22,0,.43t0,.43q0,.22,0,.43t0,.43c-.1,18.93,12.36,37.88,37.38,52.32,49.84,28.78,130.65,28.78,180.48,0,25-14.44,37.47-33.39,37.37-52.32q0-.22,0-.43t0-.43q0-.22,0-.43t0-.43q0-.22,0-.43t0-.43q0-.22,0-.43t0-.43q0-.22,0-.43t0-.43q0-.22,0-.43t0-.43q0-.22,0-.43t0-.43q0-.22,0-.43t0-.43q0-.22,0-.43t0-.43q0-.22,0-.43t0-.43q0-.22,0-.43t0-.43q0-.22,0-.43t0-.43q0-.22,0-.43t0-.43q0-.22,0-.43t0-.43q0-.22,0-.43t0-.43q0-.22,0-.43t0-.43q0-.22,0-.43t0-.43q0-.22,0-.43t0-.43q0-.22,0-.43t0-.43q0-.22,0-.43t0-.43q0-.22,0-.43t0-.43q0-.22,0-.43t0-.43q0-.22,0-.43t0-.43q0-.22,0-.43t0-.43q0-.22,0-.43t0-.43q0-.22,0-.43t0-.43q0-.22,0-.43t0-.43q0-.22,0-.43t0-.43q0-.22,0-.43t0-.43q0-.22,0-.43t0-.43q0-.22,0-.43t0-.43q0-.22,0-.43t0-.43q0-.22,0-.43t0-.43q0-.22,0-.43t0-.43q0-.22,0-.43t0-.43q0-.22,0-.43t0-.43q0-.22,0-.43t0-.43q0-.22,0-.43t0-.43q0-.22,0-.43t0-.43q0-.22,0-.43t0-.43q0-.22,0-.43t0-.43q0-.22,0-.43t0-.43q0-.22,0-.43t0-.43q0-.22,0-.43t0-.43q0-.22,0-.43t0-.43q0-.22,0-.43t0-.43q0-.22,0-.43t0-.43q0-.22,0-.43t0-.43q0-.22,0-.43t0-.43q0-.22,0-.43t0-.43C255.33,55,242.87,36,217.86,21.58ZM127.58,125.14c-40-.24-79.76-18.94-72.61-27.58A57.57,57.57,0,0,1,70.69,84.75c31.44-18.15,82.41-18.15,113.85,0a56.34,56.34,0,0,1,16.55,13.84C207.73,107.14,167.58,125.38,127.58,125.14Z"/></g></g></svg>