<svg xmlns="http://www.w3.org/2000/svg" xmlns:xlink="http://www.w3.org/1999/xlink" viewBox="0 0 255.41 147.45"><defs><style>.cls-1{fill:none;}.cls-2{clip-path:url(#clip-path);}.cls-3{fill:#377ec1;}.cls-4{fill:#eef1f4;}.cls-5{fill:#ababab;}.cls-6{fill:#ff5704;}</style><clipPath id="clip-path"><path class="cls-1" d="M217.88,21.67C168-7.1,87.23-7.11,37.4,21.67s-49.84,75.43,0,104.2,130.64,28.78,180.48,0S267.72,50.44,217.88,21.67ZM74.79,104.28c-29.19-16.85-29.19-44.17,0-61s76.51-16.85,105.7,0,29.19,44.17,0,61S104,121.13,74.79,104.28Z"/></clipPath></defs><title>Asset 12</title><g id="Layer_2" data-name="Layer 2"><g id="Слой_1" data-name="Слой 1"><g class="cls-2"><path class="cls-3" d="M127.64,73.77,1.59,85.29C-9.44,45.1,38.06,7.36,107.67,1c41.77-3.82,80.3,3.41,110.2,20.67Z"/><path class="cls-4" d="M127.64,73.77l90.24,52.1c-49.84,28.77-130.64,28.77-180.48,0C17.46,114.36,6,101.37,1.59,85.29Z"/><path class="cls-5" d="M127.5,73.91,253.68,62.24c6.62,24.12-5.9,46.36-35.95,63.77Z"/><path class="cls-6" d="M127.64,73.91l90.1-52.38c20.08,11.65,31.54,24.64,36.09,41Z"/></g></g></g></svg>