<svg xmlns="http://www.w3.org/2000/svg" xmlns:xlink="http://www.w3.org/1999/xlink" viewBox="0 0 45.18 26.09"><defs><style>.cls-1{fill:url(#Безымянный_градиент_15);}.cls-2{fill:#11a5e1;}</style><linearGradient id="Безымянный_градиент_15" x1="-223.81" y1="-295.07" x2="-180.01" y2="-295.07" gradientTransform="matrix(0.87, -0.5, -1, -0.58, -100.61, -256.54)" gradientUnits="userSpaceOnUse"><stop offset="0.18" stop-color="#48587f" stop-opacity="0"/><stop offset="0.8" stop-color="#308ece"/></linearGradient></defs><title>Asset 8</title><g id="Layer_2" data-name="Layer 2"><g id="Слой_1" data-name="Слой 1"><path class="cls-1" d="M35.5,3.82.63,24a.93.93,0,0,0,0,1.77,3.38,3.38,0,0,0,3.06,0L38.56,5.59a.93.93,0,0,0,0-1.77A3.38,3.38,0,0,0,35.5,3.82Z"/><path class="cls-2" d="M41.49.37,35.35,3.91a.93.93,0,0,0,0,1.77,3.38,3.38,0,0,0,3.06,0l6.15-3.55a.93.93,0,0,0,0-1.77A3.38,3.38,0,0,0,41.49.37Z"/></g></g></svg>