<svg xmlns="http://www.w3.org/2000/svg" viewBox="0 0 919.84 185.13"><defs><style>.cls-1{fill:none;stroke:#ff5705;stroke-linecap:round;stroke-linejoin:round;stroke-width:1.4px;}</style></defs><title>Asset 1</title><g id="Layer_2" data-name="Layer 2"><g id="Слой_1" data-name="Слой 1"><path class="cls-1" d="M.7,184.43l62-62.23a16.14,16.14,0,0,1,22.8,0L136.3,173a16.14,16.14,0,0,0,22.8,0l50.57-50.8a16.14,16.14,0,0,1,22.8,0L283.31,173a16.14,16.14,0,0,0,22.8,0l50.57-50.8a16.17,16.17,0,0,1,22.81,0l50.82,50.67a16.19,16.19,0,0,0,22.83,0l50.54-50.62a16.17,16.17,0,0,1,22.81,0L577.32,173a16.14,16.14,0,0,0,22.79,0l50.57-50.8a16.14,16.14,0,0,1,22.8,0L724.33,173a16.17,16.17,0,0,0,22.81,0L919.14.7"/></g></g></svg>