<svg xmlns="http://www.w3.org/2000/svg" viewBox="0 0 578.89 334.03"><defs><style>.cls-1{fill:#6c7a98;opacity:0.15;}</style></defs><title>Asset 7</title><g id="Layer_2" data-name="Layer 2"><g id="Слой_1" data-name="Слой 1"><polygon class="cls-1" points="171.81 133.59 115 100.79 58.2 133.58 115 166.38 171.81 133.59"/><polygon class="cls-1" points="113.6 167.24 56.8 134.44 0 167.24 56.8 200.03 113.6 167.24"/><polygon class="cls-1" points="229.95 100.03 173.15 67.23 116.35 100.03 173.15 132.82 229.95 100.03"/><polygon class="cls-1" points="229.98 167.02 173.18 134.22 116.38 167.02 173.18 199.81 229.98 167.02"/><polygon class="cls-1" points="171.78 200.67 114.97 167.88 58.17 200.67 114.98 233.47 171.78 200.67"/><polygon class="cls-1" points="288.12 133.47 231.32 100.67 174.52 133.46 231.32 166.26 288.12 133.47"/><polygon class="cls-1" points="287.98 200.62 231.18 167.83 174.38 200.62 231.18 233.42 287.98 200.62"/><polygon class="cls-1" points="229.78 234.28 172.98 201.48 116.18 234.28 172.98 267.07 229.78 234.28"/><polygon class="cls-1" points="346.13 167.07 289.32 134.27 232.52 167.07 289.32 199.86 346.13 167.07"/><polygon class="cls-1" points="346.32 234.15 289.52 201.36 232.72 234.15 289.52 266.95 346.32 234.15"/><polygon class="cls-1" points="288.12 267.81 231.32 235.01 174.52 267.81 231.32 300.6 288.12 267.81"/><polygon class="cls-1" points="404.47 200.6 347.67 167.8 290.86 200.6 347.67 233.39 404.47 200.6"/><polygon class="cls-1" points="404.5 267.59 347.69 234.79 290.89 267.59 347.7 300.38 404.5 267.59"/><polygon class="cls-1" points="346.3 301.24 289.49 268.45 232.69 301.24 289.49 334.04 346.3 301.24"/><polygon class="cls-1" points="462.64 234.03 405.84 201.24 349.04 234.03 405.84 266.83 462.64 234.03"/><polygon class="cls-1" points="346.2 32.8 289.4 0 232.6 32.79 289.4 65.59 346.2 32.8"/><polygon class="cls-1" points="288 66.45 231.19 33.65 174.39 66.45 231.2 99.24 288 66.45"/><polygon class="cls-1" points="404.37 66.23 347.57 33.44 290.77 66.23 347.57 99.02 404.37 66.23"/><polygon class="cls-1" points="346.17 99.88 289.37 67.09 232.57 99.88 289.37 132.68 346.17 99.88"/><polygon class="cls-1" points="462.38 99.83 405.57 67.04 348.77 99.83 405.57 132.63 462.38 99.83"/><polygon class="cls-1" points="404.17 133.49 347.37 100.69 290.57 133.49 347.37 166.28 404.17 133.49"/><polygon class="cls-1" points="520.72 133.36 463.92 100.57 407.11 133.36 463.92 166.16 520.72 133.36"/><polygon class="cls-1" points="462.51 167.02 405.71 134.22 348.91 167.01 405.71 199.81 462.51 167.02"/><polygon class="cls-1" points="578.89 166.8 522.09 134 465.29 166.8 522.09 199.59 578.89 166.8"/><polygon class="cls-1" points="520.69 200.45 463.88 167.66 407.08 200.45 463.89 233.24 520.69 200.45"/></g></g></svg>