<?xml version="1.0" encoding="utf-8"?>
<!-- Generator: Adobe Illustrator 16.0.0, SVG Export Plug-In . SVG Version: 6.00 Build 0)  -->
<!DOCTYPE svg PUBLIC "-//W3C//DTD SVG 1.1//EN" "http://www.w3.org/Graphics/SVG/1.1/DTD/svg11.dtd">
<svg version="1.1" id="Layer_1" xmlns="http://www.w3.org/2000/svg" xmlns:xlink="http://www.w3.org/1999/xlink" x="0px" y="0px"
	 width="881.941px" height="186.025px" viewBox="0 0 881.941 186.025" enable-background="new 0 0 881.941 186.025"
	 xml:space="preserve">
<g>
	<defs>
		<rect id="SVGID_1_" width="881.941" height="186.025"/>
	</defs>
	<clipPath id="SVGID_2_">
		<use xlink:href="#SVGID_1_"  overflow="visible"/>
	</clipPath>
	
		<path clip-path="url(#SVGID_2_)" fill="none" stroke="#FF5704" stroke-width="1.3" stroke-linecap="round" stroke-linejoin="round" stroke-miterlimit="10" d="
		M560.468,172.425c5.683-0.523,11.182-2.451,15.513-5.78L760.676,55.997c10.269-7.892,27.076-7.897,37.353-0.012l83.263,63.888"/>
	
		<path clip-path="url(#SVGID_2_)" fill="none" stroke="#FF5704" stroke-width="1.3" stroke-linecap="round" stroke-linejoin="round" stroke-miterlimit="10" d="
		M453.251,101.687l85.352,64.989c4.268,3.267,9.657,5.174,15.238,5.728"/>
	
		<path clip-path="url(#SVGID_2_)" fill="none" stroke="#FF5704" stroke-width="1.3" stroke-linecap="round" stroke-linejoin="round" stroke-miterlimit="10" d="
		M330.196,13.672c5.484,0.589,10.77,2.493,14.966,5.713l102.885,78.339"/>
	
		<path clip-path="url(#SVGID_2_)" fill="none" stroke="#FF5704" stroke-width="1.3" stroke-linecap="round" stroke-linejoin="round" stroke-miterlimit="10" d="
		M205.129,88.866c6.089-0.357,12.043-2.314,16.669-5.869l86.012-63.6c4.428-3.404,10.072-5.34,15.884-5.81"/>
	
		<path clip-path="url(#SVGID_2_)" fill="none" stroke="#FF5704" stroke-width="1.3" stroke-linecap="round" stroke-linejoin="round" stroke-miterlimit="10" d="
		M0.65,66.124l63.207-46.707c10.253-7.903,27.062-7.927,37.352-0.053l83.21,63.666c4.005,3.065,9,4.934,14.212,5.61"/>
	
		<path clip-path="url(#SVGID_2_)" fill="none" stroke="#FF5704" stroke-width="1.3" stroke-linecap="round" stroke-linejoin="round" stroke-miterlimit="10" d="
		M201.879,91.677c1.68,0,3.043-1.362,3.043-3.043s-1.363-3.042-3.043-3.042s-3.043,1.361-3.043,3.042S200.199,91.677,201.879,91.677
		"/>
	
		<circle clip-path="url(#SVGID_2_)" fill="none" stroke="#FF5704" stroke-width="1.17" stroke-linecap="round" stroke-linejoin="round" stroke-miterlimit="10" cx="201.879" cy="88.634" r="3.042"/>
	
		<path clip-path="url(#SVGID_2_)" fill="none" stroke="#FF5704" stroke-width="1.3" stroke-linecap="round" stroke-linejoin="round" stroke-miterlimit="10" d="
		M326.939,16.695c1.68,0,3.043-1.362,3.043-3.043c0-1.681-1.363-3.042-3.043-3.042s-3.043,1.361-3.043,3.042
		C323.896,15.333,325.259,16.695,326.939,16.695"/>
	
		<circle clip-path="url(#SVGID_2_)" fill="none" stroke="#FF5704" stroke-width="1.17" stroke-linecap="round" stroke-linejoin="round" stroke-miterlimit="10" cx="326.939" cy="13.653" r="3.042"/>
	
		<path clip-path="url(#SVGID_2_)" fill="none" stroke="#FF5704" stroke-width="1.3" stroke-linecap="round" stroke-linejoin="round" stroke-miterlimit="10" d="
		M450.875,102.528c1.68,0,3.043-1.361,3.043-3.043c0-1.681-1.363-3.042-3.043-3.042c-1.681,0-3.043,1.361-3.043,3.042
		C447.832,101.167,449.194,102.528,450.875,102.528"/>
	
		<circle clip-path="url(#SVGID_2_)" fill="none" stroke="#FF5704" stroke-width="1.17" stroke-linecap="round" stroke-linejoin="round" stroke-miterlimit="10" cx="450.875" cy="99.485" r="3.042"/>
	
		<path clip-path="url(#SVGID_2_)" fill="none" stroke="#FF5704" stroke-width="1.3" stroke-linecap="round" stroke-linejoin="round" stroke-miterlimit="10" d="
		M557.008,175.415c1.68,0,3.043-1.361,3.043-3.043c0-1.681-1.363-3.042-3.043-3.042s-3.043,1.361-3.043,3.042
		C553.965,174.053,555.328,175.415,557.008,175.415"/>
	
		<circle clip-path="url(#SVGID_2_)" fill="none" stroke="#FF5704" stroke-width="1.17" stroke-linecap="round" stroke-linejoin="round" stroke-miterlimit="10" cx="557.008" cy="172.372" r="3.042"/>
</g>
</svg>
